<?xml version="1.0" encoding="utf-8"?>
<!-- Generator: Adobe Illustrator 24.1.2, SVG Export Plug-In . SVG Version: 6.00 Build 0)  -->
<svg version="1.1" id="Livello_1" xmlns="http://www.w3.org/2000/svg" xmlns:xlink="http://www.w3.org/1999/xlink" x="0px" y="0px"
	 viewBox="0 0 22 20" style="enable-background:new 0 0 22 20;" xml:space="preserve">
<style type="text/css">
	.st0{fill:#FFFFFF;}
</style>
<path class="st0" d="M20.9,3.6H3.9L3.6,0.8C3.6,0.4,3.2,0,2.7,0H0.9C0.4,0,0,0.4,0,0.9s0.4,0.9,0.9,0.9h1l1,11.5
	C3,14.1,3.4,15,4.2,15.6C2.8,17.4,4.1,20,6.4,20c1.9,0,3.2-1.9,2.6-3.6h4.9c-0.6,1.8,0.7,3.6,2.6,3.6c1.5,0,2.7-1.2,2.7-2.7
	c0-1.5-1.2-2.7-2.7-2.7h-10c-0.7,0-1.3-0.4-1.5-1l14.3-0.8c0.4,0,0.7-0.3,0.8-0.7l1.8-7.3c0.1-0.5-0.2-1-0.7-1.1
	C21.1,3.6,21,3.6,20.9,3.6L20.9,3.6z M6.4,18.2c-0.5,0-0.9-0.5-0.9-1c0-0.5,0.4-0.9,0.9-0.9c0.5,0,0.9,0.5,0.9,1
	C7.2,17.8,6.8,18.2,6.4,18.2z M16.4,18.2c-0.5,0-0.9-0.5-0.9-1c0-0.5,0.4-0.9,0.9-0.9c0.5,0,0.9,0.5,0.9,1
	C17.2,17.8,16.9,18.2,16.4,18.2z M18.4,11L4.6,11.8L4,5.4h15.8L18.4,11L18.4,11z"/>
</svg>
